inDegrees=yes
name=ik_S41_A10_T01
DataType=double
version=3
OpenSimVersion=4.3-2021-08-27-4bc7ad9
endheader
time	pelvis_tilt	pelvis_list	pelvis_rotation	pelvis_tx	pelvis_ty	pelvis_tz	hip_flexion_r	hip_adduction_r	hip_rotation_r	knee_angle_r	knee_angle_r_beta	ankle_angle_r	subtalar_angle_r	mtp_angle_r	hip_flexion_l	hip_adduction_l	hip_rotation_l	knee_angle_l	knee_angle_l_beta	ankle_angle_l	subtalar_angle_l	mtp_angle_l	lumbar_extension	lumbar_bending	lumbar_rotation	arm_flex_r	arm_add_r	arm_rot_r	elbow_flex_r	pro_sup_r	wrist_flex_r	wrist_dev_r	arm_flex_l	arm_add_l	arm_rot_l	elbow_flex_l	pro_sup_l	wrist_flex_l	wrist_dev_l
0	0	0	0	0	0.9399999999999999	0	0	0	0	0	0	0	0	0	0	0	0	0	0	0	0	0	0	0	0	0	0	0	0	89.99999999963507	0	0	0	0	0	0	89.99999999869995	0	0
0.02	-1.024203511875202	-0.2548000413104367	18.62597202040661	0	0.9399999999999999	0	3.620772424042948	-1.680381498359418	-1.216725574472312	5.574434142253772	0.09729222971791428	0	0	0	3.620772424042948	-1.680381498359418	-1.216725574472312	5.574434142253772	0.09729222971791428	0	0	0	0.3485944259805104	-0.8926167886285126	1.64343289101907	13.78827866627358	-3.880104621363566	-2.330445318857197	53.03647323400342	64.75981658090355	0	0	10.75774755851622	-2.168742005987043	-4.595085383362459	63.6186886567116	61.48128689226699	0	0
0.04	-0.8864955857548699	-0.2015235973609202	18.14907222084299	0	0.9399999999999999	0	33.26909836955861	-16.56321797925233	-10.93728478816195	46.91395470472776	0.8188029747289837	0	0	0	33.26909836955861	-16.56321797925233	-10.93728478816195	46.91395470472776	0.8188029747289837	0	0	0	0.151139461468771	-0.9088830883099729	2.094402804456546	13.80334437611765	-3.861670589708373	-2.302248806786795	53.0488262980818	64.78992111146869	0	0	10.80626478324599	-2.185121393758004	-4.623889898338186	63.57188508295206	61.51070933110421	0	0
0.06	-0.9106342599559081	-0.2136907827294384	18.14490655827831	0	0.9399999999999999	0	33.27108123887325	-16.5267959128606	-10.93544299729975	46.91345338305211	0.818794225015132	0	0	0	33.27108123887325	-16.5267959128606	-10.93544299729975	46.91345338305211	0.818794225015132	0	0	0	0.1245300403501959	-0.913076206772833	2.092864743399526	13.80510500286803	-3.865988655938258	-2.303316893023863	53.0403753646012	64.82834381917786	0	0	10.82307204062056	-2.194972565405418	-4.635700848410469	63.57933059239441	61.49909598657474	0	0
0.08	-0.9396996085334683	-0.2258918439316923	18.14244546234951	0	0.9399999999999999	0	33.30455366413872	-16.46020015030293	-10.9295314578162	46.92867757177737	0.8190599372343327	0	0	0	33.30455366413872	-16.46020015030293	-10.9295314578162	46.92867757177737	0.8190599372343327	0	0	0	0.09107076766316466	-0.9136825560709275	2.091634045238894	13.82188502532366	-3.896536150092852	-2.323852015383652	53.08817708288139	64.88549115961671	0	0	10.86042887824538	-2.21756690764932	-4.658497778683066	63.61467140858517	61.52066339826929	0	0
0.1	-0.9596774009960196	-0.2350591564205065	18.13540443635333	0	0.9399999999999999	0	33.31062097808046	-16.44711180870565	-10.92841884128994	46.93141837046095	0.8191077731954954	0	0	0	33.31062097808046	-16.44711180870565	-10.92841884128994	46.93141837046095	0.8191077731954954	0	0	0	0.06886662115929174	-0.9158383111800062	2.090464415620893	13.87592322327187	-3.87183222733932	-2.322552251726989	53.01598386931656	64.94662573867383	0	0	10.89143871865558	-2.207001399492641	-4.656024512328563	63.57176648011428	61.45473199765115	0	0
0.12	-0.9752008326892945	-0.2444489942836983	18.12907636592775	0	0.9399999999999999	0	33.32070220258873	-16.42357570288488	-10.92648385808983	46.93586488793541	0.8191853795656722	0	0	0	33.32070220258873	-16.42357570288488	-10.92648385808983	46.93586488793541	0.8191853795656722	0	0	0	0.05058959510169506	-0.9193657747173991	2.088661936790669	13.84713573251317	-3.893997182918966	-2.324446436120115	53.0291592864318	64.97322556944883	0	0	10.9083837583574	-2.217812013681523	-4.661312957692409	63.57218964167363	61.44831011230509	0	0
0.14	-0.9796092941965435	-0.2451369642877653	18.12583770727276	0	0.9399999999999999	0	33.36295033824061	-16.36014378500435	-10.91993011218795	46.9558962435896	0.8195349926754758	0	0	0	33.36295033824061	-16.36014378500435	-10.91993011218795	46.9558962435896	0.8195349926754758	0	0	0	0.04346257336806415	-0.9160530058779663	2.081176270211557	13.80757985540515	-3.871826469317453	-2.313844585547896	53.04374801551615	65.03528034313385	0	0	10.93027669980569	-2.206663672941891	-4.662716967876186	63.54704858639967	61.39344803666693	0	0
0.16	-0.9947384937301392	-0.2559945051205046	18.11639524016584	0	0.9399999999999999	0	33.37761960338975	-16.33459968421993	-10.91750020197975	46.96272600507118	0.8196541945004553	0	0	0	33.37761960338975	-16.33459968421993	-10.91750020197975	46.96272600507118	0.8196541945004553	0	0	0	0.02478083848205692	-0.9207810209078217	2.080252638290147	13.82702305582721	-3.851380703159248	-2.293927348648437	53.06682040777758	65.0654212889909	0	0	10.90026567106597	-2.179187718922559	-4.630141111457443	63.55735068201617	61.39509244192345	0	0
0.18	-1.007414524819021	-0.2642101495305785	18.1089966632619	0	0.9399999999999999	0	33.39100837525862	-16.30924677771008	-10.91519219407282	46.96887033155569	0.8197614332279274	0	0	0	33.39100837525862	-16.30924677771008	-10.91519219407282	46.96887033155569	0.8197614332279274	0	0	0	0.009343401592370208	-0.9238526225819689	2.078036812539374	13.8173972668162	-3.854735412929627	-2.283496371393471	53.08254451527454	65.0873498949508	0	0	10.90438514702591	-2.16975386466423	-4.619485596527701	63.56936852119827	61.39925146606631	0	0
0.2	-1.020591340163044	-0.2662300098415506	18.09441281945417	0	0.9399999999999999	0	33.40349833827865	-16.29040360063899	-10.91324907466247	46.97479378381869	0.8198648169730015	0	0	0	33.40349833827865	-16.29040360063899	-10.91324907466247	46.97479378381869	0.8198648169730015	0	0	0	-0.004623015373582485	-0.9208819387294899	2.073989620103891	13.81526327224095	-3.829758775596679	-2.286356301065904	53.09118843626788	65.10924317875313	0	0	10.89428871084813	-2.134966750042758	-4.612089395033726	63.56662594906873	61.38166537223208	0	0
0.22	-1.031976709193059	-0.2708234052620042	18.08398891955535	0	0.9399999999999999	0	33.41904201906258	-16.26371136244644	-10.91068925465581	46.9820374457704	0.8199912427239604	0	0	0	33.41904201906258	-16.26371136244644	-10.91068925465581	46.9820374457704	0.8199912427239604	0	0	0	-0.0178656652155495	-0.9207630055644406	2.070154360292137	13.81840588874432	-3.829968309830567	-2.287538226920268	53.11117403655881	65.13711649357185	0	0	10.88963921669937	-2.121256566998622	-4.604391848663186	63.57151274350341	61.37790369815991	0	0
0.24	-1.035694351957838	-0.2748304444577048	18.06518419309987	0	0.9399999999999999	0	33.42626226110093	-16.25518703771175	-10.90966963337361	46.98556127920553	0.8200527452196952	0	0	0	33.42626226110093	-16.25518703771175	-10.90966963337361	46.98556127920553	0.8200527452196952	0	0	0	-0.02315549286740721	-0.9229247799667616	2.065968948041279	13.81649847118091	-3.81290762261993	-2.292430580620884	53.10278366990573	65.16260553727059	0	0	10.85477946007967	-2.086535607235513	-4.601754704631043	63.54796604968715	61.34467687540046	0	0
0.26	-1.032355301762761	-0.2753510925132682	18.05542960671066	0	0.9399999999999999	0	33.42478868062997	-16.25653558454063	-10.90985873419881	46.9848421156782	0.8200401934482831	0	0	0	33.42478868062997	-16.25653558454063	-10.90985873419881	46.9848421156782	0.8200401934482831	0	0	0	-0.02004382412078018	-0.9245323421980526	2.068919327820177	13.78425092020655	-3.820568362760533	-2.288130088766927	53.0714645397069	65.2257776126596	0	0	10.79617714636568	-2.072270304536381	-4.578155765853353	63.52463160437873	61.31190123396463	0	0
0.28	-1.028039061329223	-0.2703938543630772	18.02926879091839	0	0.9399999999999999	0	33.43322303438524	-16.24693627877203	-10.90868849387799	46.98901196893843	0.820112971116999	0	0	0	33.43322303438524	-16.24693627877203	-10.90868849387799	46.98901196893843	0.820112971116999	0	0	0	-0.01500302116879596	-0.92057114309948	2.064166728415969	13.76732027920857	-3.82366026473677	-2.263313727046557	53.03550296694498	65.29333532249407	0	0	10.78649100854228	-2.064279792162595	-4.605811099035387	63.4774906652351	61.25472850524143	0	0
0.3	-1.040087225174106	-0.2783899589369938	18.02801457019108	0	0.9399999999999999	0	33.47631222782135	-16.18181599001759	-10.90198177431049	47.00940300320546	0.8204688618028456	0	0	0	33.47631222782135	-16.18181599001759	-10.90198177431049	47.00940300320546	0.8204688618028456	0	0	0	-0.03171760393261248	-0.9217600249759879	2.06181211860055	13.78365919614118	-3.7906567257079	-2.266280693799465	53.02051693620854	65.37627182306785	0	0	10.75841367485144	-2.027439628898207	-4.594911539867583	63.35134258638126	61.14940699243525	0	0
0.32	-1.045119089104504	-0.279604561281788	18.03189925702092	0	0.9399999999999999	0	33.50416689935982	-16.14308789862518	-10.89779859710423	47.02273205168477	0.8207014975849677	0	0	0	33.50416689935982	-16.14308789862518	-10.89779859710423	47.02273205168477	0.8207014975849677	0	0	0	-0.03865815110077746	-0.9196905586540772	2.059798442613641	13.7865670658204	-3.799627003740014	-2.265127187366056	52.97540004666434	65.38807100902973	0	0	10.75186994677316	-2.016539385692401	-4.596119312653167	63.27264379781633	61.09310054866862	0	0
0.34	-1.07052714785927	-0.2939469764449368	18.02402855546455	0	0.9399999999999999	0	33.50457047569103	-16.14236369914721	-10.89773127293131	47.02292493532439	0.8207048640395522	0	0	0	33.50457047569103	-16.14236369914721	-10.89773127293131	47.02292493532439	0.8207048640395522	0	0	0	-0.06729520078578254	-0.9254345958793969	2.058023045118584	13.75527276696751	-3.797482844960664	-2.254831659677432	52.97731184207182	65.39967010413403	0	0	10.72014791794196	-2.011875717094186	-4.595357348096447	63.26893737459162	61.08922929921236	0	0
0.36	-1.056624369926771	-0.2876499589732025	18.00757236943468	0	0.9399999999999999	0	33.53146957645063	-16.10046431380131	-10.89349781970404	47.03563382914312	0.8209266760809755	0	0	0	33.53146957645063	-16.10046431380131	-10.89349781970404	47.03563382914312	0.8209266760809755	0	0	0	-0.053915619862717	-0.9219983690827834	2.045509646596183	13.66676900929337	-3.802441355324714	-2.222596597943602	52.98938925454346	65.43237682528311	0	0	10.60907656976107	-2.004957116283092	-4.627958720882606	63.230415222685	61.04548195662974	0	0
0.3800000000000001	-1.047415860540836	-0.2754677858454522	17.98193603115612	0	0.9399999999999999	0	33.53371600280634	-16.09635273573841	-10.89311815508013	47.03668380421298	0.8209450016030084	0	0	0	33.53371600280634	-16.09635273573841	-10.89311815508013	47.03668380421298	0.8209450016030084	0	0	0	-0.04162790991236556	-0.9130422524178409	2.027077904746778	13.57849093173731	-3.814871388291706	-2.162936610227516	52.98032310542307	65.47847696112528	0	0	10.5077211439696	-1.992639208893157	-4.678069609263352	63.14714045830702	60.94517798115316	0	0
0.4000000000000001	-1.068818736481621	-0.2849179662155738	17.97799359956397	0	0.9399999999999999	0	33.53526346028369	-16.09351137796395	-10.89285604680043	47.03740421473374	0.8209575751385616	0	0	0	33.53526346028369	-16.09351137796395	-10.89285604680043	47.03740421473374	0.8209575751385616	0	0	0	-0.06501521974587093	-0.9153253060622849	2.024371736742496	13.55475721932393	-3.808214774498881	-2.130891037747315	52.92338872999623	65.49226253370009	0	0	10.45045587035098	-1.994752943284517	-4.648931654560529	63.07710491874375	60.85927571399931	0	0
